<svg width="404" height="983" viewBox="0 0 404 983" fill="none" xmlns="http://www.w3.org/2000/svg">
<g clip-path="url(#clip0_307_299)">
<g clip-path="url(#clip1_307_299)">
<path fill-rule="evenodd" clip-rule="evenodd" d="M34.902 6.80096C156.688 22.4248 215.536 161.802 270.252 271.757C315.883 363.456 336.511 464.805 312.354 564.357C289.472 658.649 225.575 734.938 144.814 788.681C65.3698 841.551 -27.3415 851.008 -122.71 853.881C-258.282 857.965 -417.438 906.218 -511.471 808.45C-609.528 706.499 -611.778 532.983 -556.693 402.658C-508.091 287.67 -359.819 273.645 -256.086 204.234C-154.814 136.47 -85.9354 -8.70122 34.902 6.80096Z" fill="#FF865C"/>
</g>
</g>
<defs>
<clipPath id="clip0_307_299">
<rect width="411" height="923" fill="white" transform="translate(-0.160217) rotate(10.5402)"/>
</clipPath>
<clipPath id="clip1_307_299">
<rect width="411" height="923" fill="white" transform="translate(-0.160217) rotate(10.5402)"/>
</clipPath>
</defs>
</svg>
