<svg width="11" height="10" viewBox="0 0 11 10" fill="none" xmlns="http://www.w3.org/2000/svg">
<g clip-path="url(#clip0_310_1787)">
<g clip-path="url(#clip1_310_1787)">
<g clip-path="url(#clip2_310_1787)">
<g clip-path="url(#clip3_310_1787)">
<path d="M5.41003 5.51001H7.91003V8.01001H5.41003V5.51001ZM8.91003 1.01001H8.41003V0.0100098H7.41003V1.01001H3.41003V0.0100098H2.41003V1.01001H1.91003C1.36003 1.01001 0.910034 1.46001 0.910034 2.01001V9.01001C0.910034 9.56001 1.36003 10.01 1.91003 10.01H8.91003C9.46003 10.01 9.91003 9.56001 9.91003 9.01001V2.01001C9.91003 1.46001 9.46003 1.01001 8.91003 1.01001ZM8.91003 2.01001V3.01001H1.91003V2.01001H8.91003ZM1.91003 9.01001V4.01001H8.91003V9.01001H1.91003Z" fill="#A5A5A5"/>
</g>
</g>
</g>
</g>
<defs>
<clipPath id="clip0_310_1787">
<rect width="10" height="10" fill="white" transform="translate(0.410034 0.0100098)"/>
</clipPath>
<clipPath id="clip1_310_1787">
<rect width="10" height="10" fill="white" transform="translate(0.410034 0.0100098)"/>
</clipPath>
<clipPath id="clip2_310_1787">
<rect width="10" height="10" fill="white" transform="translate(0.410034 0.0100098)"/>
</clipPath>
<clipPath id="clip3_310_1787">
<rect width="9" height="10" fill="white" transform="translate(0.910034 0.0100098)"/>
</clipPath>
</defs>
</svg>
