<svg width="11" height="10" viewBox="0 0 11 10" fill="none" xmlns="http://www.w3.org/2000/svg">
<g clip-path="url(#clip0_310_1773)">
<g clip-path="url(#clip1_310_1773)">
<g clip-path="url(#clip2_310_1773)">
<g clip-path="url(#clip3_310_1773)">
<path d="M5.21503 0.0100098C2.45503 0.0100098 0.220032 2.25001 0.220032 5.01001C0.220032 7.77001 2.45503 10.01 5.21503 10.01C7.98003 10.01 10.22 7.77001 10.22 5.01001C10.22 2.25001 7.98003 0.0100098 5.21503 0.0100098ZM5.22003 9.01001C3.01003 9.01001 1.22003 7.22001 1.22003 5.01001C1.22003 2.80001 3.01003 1.01001 5.22003 1.01001C7.43003 1.01001 9.22003 2.80001 9.22003 5.01001C9.22003 7.22001 7.43003 9.01001 5.22003 9.01001Z" fill="#A5A5A5"/>
<path d="M5.46857 2.51001H4.71857V5.51001L7.34357 7.08501L7.71857 6.47001L5.46857 5.13501V2.51001Z" fill="#A5A5A5"/>
</g>
</g>
</g>
</g>
<defs>
<clipPath id="clip0_310_1773">
<rect width="10" height="10" fill="white" transform="translate(0.220032 0.0100098)"/>
</clipPath>
<clipPath id="clip1_310_1773">
<rect width="10" height="10" fill="white" transform="translate(0.220032 0.0100098)"/>
</clipPath>
<clipPath id="clip2_310_1773">
<rect width="10" height="10" fill="white" transform="translate(0.220032 0.0100098)"/>
</clipPath>
<clipPath id="clip3_310_1773">
<rect width="10" height="10" fill="white" transform="translate(0.220032 0.0100098)"/>
</clipPath>
</defs>
</svg>
