<svg width="27" height="36" viewBox="0 0 27 36" fill="none" xmlns="http://www.w3.org/2000/svg">
<path d="M25.9062 3.65625C25.9062 9.19336 23.7188 15.0039 19.207 17.875C23.6504 20.8145 25.9062 26.625 25.9062 32.0938H26.1797C26.5898 32.0938 27 32.5039 27 32.9141V34.5547C27 35.0332 26.5898 35.375 26.1797 35.375H1.57031C1.0918 35.375 0.75 35.0332 0.75 34.5547V32.9141C0.75 32.5039 1.0918 32.0938 1.57031 32.0938H1.84375C1.84375 26.625 3.96289 20.8145 8.47461 17.875C4.03125 15.0039 1.84375 9.19336 1.84375 3.65625H1.57031C1.0918 3.65625 0.75 3.31445 0.75 2.83594V1.19531C0.75 0.785156 1.0918 0.375 1.57031 0.375H26.1797C26.5898 0.375 27 0.785156 27 1.19531V2.83594C27 3.31445 26.5898 3.65625 26.1797 3.65625H25.9062ZM5.125 3.65625C5.125 10.6289 9.02148 16.2344 13.875 16.2344C18.6602 16.2344 22.625 10.6289 22.625 3.65625H5.125ZM22.625 32.0938C22.625 25.1895 18.6602 19.5156 13.875 19.5156C9.02148 19.5156 5.125 25.1895 5.125 32.0938H22.625Z" fill="#D34040"/>
</svg>
