<svg width="21" height="34" viewBox="0 0 21 34" fill="none" xmlns="http://www.w3.org/2000/svg">
<path d="M10.79 9.69873C13.497 9.69873 15.7314 11.9331 15.7314 14.6401C15.7314 17.3901 13.497 19.5815 10.79 19.5815C8.03998 19.5815 5.84857 17.3901 5.84857 14.6401C5.84857 11.9331 8.03998 9.69873 10.79 9.69873ZM10.79 17.8628C12.5517 17.8628 13.9697 16.4448 13.9697 14.6401C13.9697 12.8784 12.5517 11.4604 10.79 11.4604C8.98529 11.4604 7.56732 12.8784 7.56732 14.6401C7.56732 16.4448 9.02826 17.8628 10.79 17.8628ZM17.0634 9.52686C17.0634 10.1714 16.5478 10.687 15.9033 10.687C15.2587 10.687 14.7431 10.1714 14.7431 9.52686C14.7431 8.88232 15.2587 8.3667 15.9033 8.3667C16.5478 8.3667 17.0634 8.88232 17.0634 9.52686ZM20.329 10.687C20.415 12.2769 20.415 17.0464 20.329 18.6362C20.2431 20.1831 19.8994 21.5151 18.7822 22.6753C17.665 23.7925 16.29 24.1362 14.7431 24.2222C13.1533 24.3081 8.38373 24.3081 6.79388 24.2222C5.24701 24.1362 3.91498 23.7925 2.75482 22.6753C1.63763 21.5151 1.29388 20.1831 1.20795 18.6362C1.12201 17.0464 1.12201 12.2769 1.20795 10.687C1.29388 9.14014 1.63763 7.76514 2.75482 6.64795C3.91498 5.53076 5.24701 5.18701 6.79388 5.10107C8.38373 5.01514 13.1533 5.01514 14.7431 5.10107C16.29 5.18701 17.665 5.53076 18.7822 6.64795C19.8994 7.76514 20.2431 9.14014 20.329 10.687ZM18.2665 20.312C18.7822 19.0659 18.6533 16.0581 18.6533 14.6401C18.6533 13.2651 18.7822 10.2573 18.2665 8.96826C17.9228 8.15186 17.2783 7.46436 16.4619 7.16357C15.1728 6.64795 12.165 6.77686 10.79 6.77686C9.37201 6.77686 6.3642 6.64795 5.1181 7.16357C4.25873 7.50732 3.6142 8.15186 3.27045 8.96826C2.75482 10.2573 2.88373 13.2651 2.88373 14.6401C2.88373 16.0581 2.75482 19.0659 3.27045 20.312C3.6142 21.1714 4.25873 21.8159 5.1181 22.1597C6.3642 22.6753 9.37201 22.5464 10.79 22.5464C12.165 22.5464 15.1728 22.6753 16.4619 22.1597C17.2783 21.8159 17.9658 21.1714 18.2665 20.312Z" fill="black"/>
<a href="https://instagram.com/academy_energy.ir">
<rect fill="black" fill-opacity="0" x="0.375" y="-1.65" width="19.25" height="25.3"/>
</a>
</svg>
