<svg width="17" height="25" viewBox="0 0 17 25" fill="none" xmlns="http://www.w3.org/2000/svg">
<path d="M8.57799 8.88216C8.94029 8.88216 9.25198 8.75162 9.51305 8.49055C9.77412 8.22948 9.90466 7.91779 9.90466 7.55548C9.90466 7.19318 9.77412 6.88149 9.51305 6.62042C9.25198 6.35935 8.93763 6.22881 8.57 6.22881C8.20236 6.22881 7.88801 6.35935 7.62694 6.62042C7.36587 6.88149 7.23533 7.19318 7.23533 7.55548C7.23533 7.91779 7.36587 8.22948 7.62694 8.49055C7.88801 8.75162 8.20503 8.88749 8.57799 8.89814V8.88216ZM8.57799 15.5635C6.78778 14.0397 5.45045 12.6251 4.566 11.3197C3.68155 10.0144 3.23933 8.80224 3.23933 7.68336C3.23933 6.02102 3.77479 4.69435 4.84572 3.70334C5.91665 2.71233 7.15807 2.21682 8.57 2.21682C9.98192 2.21682 11.2233 2.71233 12.2943 3.70334C13.3652 4.69435 13.9007 6.02102 13.9007 7.68336C13.9007 8.80224 13.4584 10.0144 12.574 11.3197C11.6895 12.6251 10.3522 14.0397 8.562 15.5635H8.57799Z" fill="black"/>
</svg>
