<svg width="81" height="58" viewBox="0 0 81 58" fill="none" xmlns="http://www.w3.org/2000/svg">
<g clip-path="url(#clip0_1_544)">
<path d="M69.0175 0.928185C71.1181 0.928185 73.0162 1.45333 74.7118 2.50361C76.4075 3.55389 77.7425 5.00278 78.7168 6.85026C79.6912 8.69775 80.1784 10.7477 80.1784 13.0001V26.135C80.1784 27.8812 79.8747 29.5263 79.2673 31.07C78.6599 32.6138 77.7994 33.9552 76.6859 35.094C75.6736 36.1063 74.522 36.8719 73.2313 37.3907C71.9406 37.9095 70.5487 38.1689 69.0555 38.1689H50.2643C48.7711 38.1689 47.3792 37.9095 46.0885 37.3907C44.7978 36.8719 43.6462 36.1063 42.6339 35.094C41.5204 33.9552 40.6599 32.6138 40.0525 31.07C39.4451 29.5263 39.1414 27.8812 39.1414 26.135V13.0001C39.1414 10.7477 39.6286 8.69775 40.603 6.85026C41.5773 5.00278 42.9123 3.55389 44.608 2.50361C46.3036 1.45333 48.2017 0.928185 50.3023 0.928185H69.0175ZM69.0175 3.8133H50.3023C48.7079 3.8133 47.2843 4.20557 46.0315 4.99012C44.7788 5.77467 43.7918 6.86925 43.0705 8.27384C42.3492 9.67844 41.9886 11.2539 41.9886 13.0001V26.135C41.9886 27.5016 42.2227 28.7797 42.6909 29.9691C43.1591 31.1586 43.8107 32.1836 44.6459 33.0441C45.4052 33.778 46.2593 34.3411 47.2084 34.7334C48.1574 35.1257 49.1761 35.3218 50.2643 35.3218H69.0555C71.2826 35.3218 73.1554 34.5626 74.6739 33.0441C75.5344 32.1836 76.1924 31.1586 76.6479 29.9691C77.1035 28.7797 77.3312 27.5016 77.3312 26.135V13.0001C77.3312 11.2539 76.9706 9.67844 76.2493 8.27384C75.528 6.86925 74.541 5.77467 73.2883 4.99012C72.0355 4.20557 70.6119 3.8133 69.0175 3.8133ZM72.0545 12.6585C72.3076 12.9622 72.4088 13.3101 72.3582 13.7024C72.3076 14.0947 72.1304 14.4174 71.8267 14.6704L63.3612 21.5416C62.273 22.402 61.0582 22.8323 59.7168 22.8323C58.3755 22.8323 57.1734 22.4147 56.1104 21.5795L47.531 14.6704C47.2273 14.4174 47.0565 14.0947 47.0185 13.7024C46.9806 13.3101 47.0818 12.9622 47.3222 12.6585C47.5627 12.3548 47.879 12.1776 48.2713 12.127C48.6636 12.0764 49.0115 12.1776 49.3152 12.4307L57.8947 19.3398C58.4261 19.7447 59.0335 19.9472 59.7168 19.9472C60.4002 19.9472 61.0076 19.732 61.539 19.3018L70.0425 12.4307C70.3462 12.1776 70.6942 12.07 71.0865 12.108C71.4787 12.146 71.8014 12.3295 72.0545 12.6585Z" fill="#00C6AE"/>
</g>
<defs>
<clipPath id="clip0_1_544">
<rect width="42.45" height="38" fill="white" transform="matrix(1 0 0 -1 38.34 38.4727)"/>
</clipPath>
</defs>
</svg>
