<svg width="23" height="34" viewBox="0 0 23 34" fill="none" xmlns="http://www.w3.org/2000/svg">
<path d="M11.09 3.98389C16.9767 3.98389 21.7462 8.75342 21.7462 14.6401C21.7462 20.5269 16.9767 25.2964 11.09 25.2964C5.20328 25.2964 0.433746 20.5269 0.433746 14.6401C0.433746 8.75342 5.20328 3.98389 11.09 3.98389ZM16.2892 11.2886C16.4611 10.6011 16.0314 10.3003 15.5587 10.4722L5.28922 14.4253C4.60172 14.6831 4.60172 15.1128 5.16031 15.2847L7.7814 16.1011L13.883 12.2339C14.1837 12.062 14.4416 12.1909 14.2267 12.3628L9.28531 16.8315L9.11343 19.5386C9.37125 19.5386 9.50015 19.4097 9.62906 19.2808L10.9181 18.0347L13.5822 20.0112C14.0978 20.269 14.4416 20.1401 14.5705 19.5386L16.2892 11.2886Z" fill="black"/>
<a href="https://t.me/academy_energy1403">
<rect fill="black" fill-opacity="0" x="0.34375" y="-1.65" width="21.3125" height="25.3"/>
</a>
</svg>
