<svg width="21" height="34" viewBox="0 0 21 34" fill="none" xmlns="http://www.w3.org/2000/svg">
<path d="M17.0931 7.85107C18.8978 9.65576 20.015 12.019 20.015 14.5972C20.015 19.8394 15.6322 24.1362 10.347 24.1362C8.7572 24.1362 7.21033 23.7065 5.79236 22.9761L0.765015 24.2651L2.09705 19.3237C1.28064 17.9058 0.807983 16.2729 0.807983 14.5542C0.807983 9.31201 5.10486 5.01514 10.347 5.01514C12.9252 5.01514 15.3314 6.04639 17.0931 7.85107ZM10.347 22.5034C14.7299 22.5034 18.3822 18.937 18.3822 14.5972C18.3822 12.4487 17.4799 10.4722 15.976 8.96826C14.472 7.46436 12.4955 6.64795 10.39 6.64795C6.0072 6.64795 2.4408 10.2144 2.4408 14.5542C2.4408 16.0581 2.87048 17.519 3.64392 18.8081L3.85876 19.1089L3.04236 22.0308L6.05017 21.2144L6.30798 21.3862C7.55408 22.1167 8.92908 22.5034 10.347 22.5034ZM14.7299 16.5737C14.9447 16.7026 15.1166 16.7456 15.1595 16.8745C15.2455 16.9604 15.2455 17.4331 15.0306 17.9917C14.8158 18.5503 13.8705 19.0659 13.4408 19.1089C12.6674 19.2378 12.0658 19.1948 10.5619 18.5073C8.15564 17.4761 6.60876 15.0698 6.47986 14.9409C6.35095 14.769 5.53455 13.6519 5.53455 12.4487C5.53455 11.2886 6.13611 10.73 6.35095 10.4722C6.5658 10.2144 6.82361 10.1714 6.99548 10.1714C7.12439 10.1714 7.29626 10.1714 7.42517 10.1714C7.59705 10.1714 7.76892 10.1284 7.98376 10.6011C8.15564 11.0737 8.67126 12.2339 8.71423 12.3628C8.7572 12.4917 8.80017 12.6206 8.71423 12.7925C8.28455 13.6948 7.76892 13.6519 8.02673 14.0815C8.97205 15.6714 9.87439 16.23 11.2924 16.9175C11.5072 17.0464 11.6361 17.0034 11.808 16.8745C11.9369 16.7026 12.4095 16.144 12.5385 15.9292C12.7103 15.6714 12.8822 15.7144 13.097 15.8003C13.3119 15.8862 14.472 16.4448 14.7299 16.5737Z" fill="black"/>
<a href="https://wa.me/989354047190">
<rect fill="black" fill-opacity="0" x="0.375" y="-1.65" width="19.25" height="25.3"/>
</a>
</svg>
